<svg xmlns="http://www.w3.org/2000/svg" width="60" height="70" viewBox="0 0 60 70"><defs><style>.a{fill:#006fcf;}.b{fill:#fff;}</style></defs><path class="a" d="M59.174,15.66a61.733,61.733,0,0,0-5.837-6.816,60.789,60.789,0,0,0-6.677-5.959C43.2.3,41.531,0,40.571,0H7.357A5.42,5.42,0,0,0,2,5.469V64.531A5.421,5.421,0,0,0,7.357,70H56.643A5.421,5.421,0,0,0,62,64.531V21.875C62,20.9,61.706,19.184,59.174,15.66Zm-8.867-3.723a59.415,59.415,0,0,1,4.86,5.563H44.857V6.976A58.983,58.983,0,0,1,50.306,11.937Zm7.408,52.594a1.1,1.1,0,0,1-1.071,1.094H7.357a1.1,1.1,0,0,1-1.071-1.094V5.469A1.1,1.1,0,0,1,7.357,4.375H40.571V19.688a2.166,2.166,0,0,0,2.143,2.188h15Z" transform="translate(-2 0)"/><g transform="translate(16 29)"><circle class="a" cx="15" cy="15" r="15"/><path class="b" d="M13.985,4l-7.77,7.77L2.59,8.144,0,10.734l6.216,6.216L16.575,6.59Z" transform="translate(7 5)"/></g></svg>