<svg xmlns="http://www.w3.org/2000/svg" width="60" height="70"><defs><style>.a{fill:#006fcf}</style></defs><path class="a" d="M57.174 15.66a61.733 61.733 0 00-5.837-6.816 60.789 60.789 0 00-6.677-5.959C41.2.3 39.531 0 38.571 0H5.357A5.42 5.42 0 000 5.469v59.062A5.421 5.421 0 005.357 70h49.286A5.421 5.421 0 0060 64.531V21.875c0-.975-.294-2.691-2.826-6.215zm-8.867-3.723a59.415 59.415 0 014.86 5.563h-10.31V6.976a58.983 58.983 0 015.449 4.961zm7.408 52.594a1.1 1.1 0 01-1.071 1.094H5.357a1.1 1.1 0 01-1.071-1.094V5.469a1.1 1.1 0 011.071-1.094h33.214v15.313a2.166 2.166 0 002.143 2.188h15z"/><g transform="translate(16 29)"><circle class="a" cx="15" cy="15" r="15"/><path d="M20.985 9l-7.77 7.77-3.625-3.626L7 15.734l6.216 6.216 10.359-10.36z" fill="#fff"/></g></svg>